<svg width="54" height="54" viewBox="0 0 54 54" fill="none" xmlns="http://www.w3.org/2000/svg">
<g id="Target">
<g id="Target_2">
<path id="Vector" opacity="0.2" d="M27 37.125C32.5919 37.125 37.125 32.5919 37.125 27C37.125 21.4081 32.5919 16.875 27 16.875C21.4081 16.875 16.875 21.4081 16.875 27C16.875 32.5919 21.4081 37.125 27 37.125Z" fill="white"/>
<path id="Vector_2" d="M27 27L47.25 6.75" stroke="white" stroke-linecap="round" stroke-linejoin="round"/>
<path id="Vector_3" d="M41.3186 12.6809C37.7316 9.10092 32.9314 6.99766 27.8679 6.78724C22.8044 6.57681 17.8463 8.27456 13.9746 11.5446C10.1028 14.8146 7.59948 19.4188 6.95974 24.4461C6.32 29.4735 7.59049 34.5578 10.5199 38.6933C13.4492 42.8288 17.8241 45.7142 22.7789 46.7786C27.7338 47.8431 32.9077 47.009 37.277 44.4415C41.6464 41.874 44.8929 37.76 46.3744 32.9134C47.8558 28.0669 47.4642 22.8409 45.2771 18.2692" stroke="white" stroke-linecap="round" stroke-linejoin="round"/>
<path id="Vector_4" d="M34.1594 19.8406C32.4854 18.1667 30.2779 17.1323 27.9205 16.9172C25.563 16.702 23.2047 17.3197 21.2555 18.6629C19.3062 20.006 17.8892 21.9898 17.2507 24.2693C16.6122 26.5488 16.7927 28.98 17.7607 31.1402C18.7287 33.3005 20.4231 35.0533 22.5493 36.094C24.6755 37.1346 27.0992 37.3974 29.399 36.8365C31.6989 36.2757 33.7295 34.9267 35.1379 33.024C36.5464 31.1214 37.2436 28.7854 37.1085 26.422" stroke="white" stroke-linecap="round" stroke-linejoin="round"/>
</g>
</g>
</svg>
